<svg width="457" height="350" viewBox="0 0 457 350" fill="none" xmlns="http://www.w3.org/2000/svg">
<path fill-rule="evenodd" clip-rule="evenodd" d="M181.749 77L178.904 81.877H176.175L175.305 83.311H178.062L171.993 93.694C170.716 95.902 171.617 97.94 174.055 97.94C175.278 97.94 176.593 97.303 177.908 96.319L177.13 97.653H180.176L184.764 89.766C189.408 83.999 191.47 84.746 190.163 86.956L186.243 93.696C184.965 95.906 185.866 97.944 188.304 97.944C190.1 97.944 192.092 96.574 193.997 94.739C194.143 96.596 195.664 97.944 198.087 97.944C201.51 97.944 204.907 95.304 207.403 92.436C207.206 92.033 206.684 91.575 206.277 91.403L206.074 91.629C203.896 94.126 201.11 96.104 198.992 96.104C197.132 96.104 196.028 94.958 197.422 92.549L197.712 92.029C199.658 92.834 203.316 92.46 205.58 88.589L206.017 87.842C207.642 85.089 206.075 83.024 203.607 83.024C201.168 83.024 199.224 84.287 197.947 86.465L195.017 91.43L194.841 91.63C192.664 94.124 190.546 96.102 189.21 96.102C188.544 96.102 188.164 95.642 188.86 94.467L193.215 86.924C194.521 84.659 193.275 83.024 191.591 83.024C190.284 83.024 188.889 83.741 187.381 85.289L192.199 77H189.18L180.757 91.438L180.587 91.628C178.411 94.124 176.29 96.102 174.954 96.102C174.287 96.102 173.91 95.642 174.608 94.467L181.08 83.309H183.547L184.419 81.876H181.923L184.768 77.001L181.749 77ZM149.44 81.879L152.285 77.004H155.304L152.458 81.877H154.957L154.085 83.313H151.62L145.144 94.471C144.447 95.646 144.825 96.106 145.492 96.106C146.827 96.106 148.949 94.127 151.125 91.631L151.281 91.455L152.518 89.365L153.998 86.812C155.74 83.828 157.538 82.912 159.86 82.912C162.706 82.912 164.389 85.865 162.561 88.992L159.716 93.838C161.227 93.809 162.91 93.094 164.274 91.631L164.479 91.403C164.885 91.575 165.407 92.032 165.607 92.436C164.067 94.242 161.223 95.332 159.423 95.332H158.757C155.488 99.416 150.141 98.673 150.147 94.871C148.281 96.64 146.344 97.944 144.59 97.944C142.152 97.944 141.251 95.906 142.529 93.697L148.597 83.314H145.84L146.71 81.879H149.44ZM160.238 87.877C161.266 86.135 160.8 84.93 159.816 84.84C159.051 84.77 157.973 85.376 157.046 86.932L155.595 89.369L153.301 93.297C151.501 96.394 154.958 96.853 156.38 94.443L156.41 94.387C156.235 94.099 156.119 93.754 156.119 93.383C156.119 92.408 156.902 91.604 157.889 91.604H158.034L160.238 87.877ZM203.55 87.846C204.562 86.102 204.03 85.185 203.061 85.242V85.243C202.309 85.287 201.292 85.921 200.529 87.213L198.583 90.57C199.716 90.972 201.663 91.03 203.113 88.592L203.55 87.846ZM247.379 79.779C245.665 81.299 245.521 82.993 246.596 84.369L246.858 84.713L246.796 84.7999C245.467 86.6558 243.692 89.1355 241.748 91.397L241.75 91.4L241.547 91.629C240.182 93.09 238.501 93.809 236.989 93.838L239.832 88.99C241.662 85.864 239.979 82.91 237.132 82.91C234.812 82.91 233.012 83.828 231.272 86.81L229.788 89.363L228.55 91.455L228.396 91.631C225.899 94.471 223.753 96.302 221.371 97.307L228.134 85.893H226.364C226.364 84.659 225.088 83.023 223.2 83.023C221.576 83.023 219.31 84.288 218.032 86.467L213.794 93.694C212.516 95.902 213.416 97.94 215.854 97.94C216.697 97.94 217.714 97.566 218.731 96.936L217.888 98.34C213.824 99.573 211.268 101.208 211.268 103.446C211.268 106.315 215.71 106.917 217.888 103.246L220.18 99.316C222.596 98.573 224.963 97.169 227.42 94.852C227.399 98.669 232.757 99.419 236.03 95.328H236.698C238.498 95.328 241.343 94.239 242.882 92.432C244.331 90.768 245.462 89.277 247.872 86.037L248.277 86.526C248.654 87.013 248.802 87.616 248.452 88.217L245.259 93.696C243.979 95.906 244.88 97.942 247.32 97.942C248.85 97.942 250.524 96.947 252.162 95.52C252.112 96.906 253.049 97.942 254.781 97.942C255.621 97.942 256.638 97.569 257.655 96.938L256.813 98.34C252.748 99.573 250.197 101.208 250.197 103.446C250.197 106.315 254.637 106.916 256.813 103.246L259.105 99.316C261.565 98.558 263.975 97.11 266.482 94.717C266.618 96.585 268.14 97.942 270.572 97.942C273.03 97.942 275.471 96.579 277.576 94.752C277.459 98.657 282.886 99.455 286.188 95.33H286.856C287.801 95.33 289.031 95.022 290.213 94.477C289.4 96.55 290.147 97.942 291.874 97.942C293.53 97.942 295.387 96.45 296.838 95.074C296.548 96.679 297.505 97.942 299.422 97.942C301.918 97.942 304.792 95.305 307.29 92.436L307.288 92.434C308.643 90.8896 309.871 89.2581 310.858 87.9483L310.858 87.9481C311.118 87.6025 311.362 87.2793 311.586 86.986C311.186 88.0262 310.992 89.345 310.802 90.6378C310.427 93.1927 310.066 95.646 308.16 95.646C307.144 95.646 306.74 94.556 306.74 94.556L304.85 95.531C304.85 95.531 305.401 97.943 308.16 97.943C308.428 97.943 308.672 97.9174 308.934 97.8899L309 97.883C309.015 97.883 309.03 97.8763 309.045 97.8695C309.061 97.8628 309.076 97.856 309.091 97.856C312.167 97.456 315.215 95.046 317.479 92.436C317.306 91.977 316.783 91.518 316.349 91.402L316.146 91.631C315.081 92.8633 313.861 93.9523 312.516 94.871C312.891 93.7572 313.088 92.4097 313.301 90.953C313.632 88.6952 314 86.1753 315.13 83.857L312.866 82.652C312.635 82.9649 312.354 83.3532 312.031 83.7982C310.608 85.7611 308.385 88.8281 306.16 91.4V91.402L305.957 91.631C303.781 94.127 301.662 96.103 300.326 96.103C299.659 96.103 299.281 95.644 299.979 94.469L306.423 83.311H303.403L298.033 92.576C295.74 94.64 293.971 95.788 293.389 95.529C292.689 95.2377 293.288 94.2533 293.68 93.6088C293.71 93.5586 293.74 93.5105 293.767 93.465L299.66 83.313H296.64L291.906 91.405L291.707 91.631C290.343 93.094 288.66 93.811 287.149 93.841L289.994 88.992C291.822 85.865 290.144 82.912 287.295 82.912C284.972 82.912 283.172 83.83 281.431 86.815L279.949 89.365L278.712 91.455L278.557 91.633C276.381 94.129 273.593 96.106 271.474 96.106C269.616 96.106 268.514 94.96 269.907 92.551L270.197 92.033C272.141 92.837 275.801 92.463 278.064 88.59L278.502 87.844C280.125 85.09 278.56 83.025 276.092 83.025C273.652 83.025 271.705 84.29 270.429 86.469L267.503 91.434L267.328 91.631C264.829 94.471 262.683 96.304 260.3 97.309L267.064 85.893H265.292C265.292 84.659 264.015 83.025 262.128 83.025C260.503 83.025 258.239 84.288 256.961 86.467L254.065 91.404L254.057 91.4L253.854 91.63C251.678 94.125 249.556 96.104 248.22 96.104C247.553 96.104 247.178 95.644 247.874 94.469L250.892 89.249C251.937 87.442 251.443 86.379 250.455 85.203L248.772 83.193C248.337 82.648 248.337 82.047 248.947 81.473L247.379 79.779ZM237.509 87.877C238.536 86.135 238.069 84.929 237.085 84.839V84.84C236.321 84.77 235.245 85.376 234.317 86.932L232.864 89.369L230.572 93.297C228.772 96.394 232.228 96.853 233.65 94.443L233.678 94.387C233.504 94.099 233.388 93.754 233.388 93.383C233.388 92.408 234.172 91.604 235.158 91.604H235.305L237.509 87.877ZM287.243 84.839C288.227 84.929 288.696 86.135 287.669 87.877L285.463 91.604H285.316C284.33 91.604 283.548 92.408 283.548 93.383C283.548 93.754 283.664 94.099 283.837 94.387L283.807 94.443C282.386 96.853 278.932 96.394 280.732 93.297L283.024 89.369L284.475 86.932C285.402 85.376 286.478 84.77 287.243 84.84V84.839ZM276.028 87.846C277.04 86.103 276.511 85.187 275.543 85.244V85.245C274.791 85.289 273.773 85.923 273.011 87.215L271.063 90.57C272.196 90.972 274.142 91.03 275.593 88.592L276.028 87.846ZM223.14 85.445C224.163 85.439 224.818 86.329 223.985 87.845L221.693 91.805C219.863 94.702 218.033 96.105 216.755 96.105C216.088 96.105 215.71 95.646 216.406 94.471L220.618 87.215C221.328 85.998 222.345 85.45 223.14 85.445ZM262.908 87.845C263.741 86.329 263.086 85.439 262.063 85.445C261.268 85.45 260.251 85.998 259.541 87.215L255.331 94.471C254.637 95.646 255.013 96.105 255.68 96.105C256.956 96.105 258.788 94.702 260.616 91.805L262.908 87.845ZM216.725 100.353L216.724 100.354C214.434 101.242 213.707 102.13 213.707 102.904C213.707 103.707 214.723 103.878 215.361 102.76L216.724 100.354L216.725 100.354V100.353ZM255.649 100.354L255.65 100.353V100.354L255.649 100.354ZM255.649 100.354L254.288 102.76C253.648 103.878 252.632 103.707 252.632 102.904C252.632 102.13 253.358 101.242 255.649 100.354ZM101 88.741H129.922V90.691H101V88.741ZM356.952 88.741H328.03V90.691H356.952V88.741Z" fill="#766458"/>
<path fill-rule="evenodd" clip-rule="evenodd" d="M194.867 37.364V45.1H174.051V0.352997H194.867V8.023H181.667V18.827H192.202V26.497H181.667V37.363L194.867 37.364ZM216.213 45.1V37.364L205.616 37.363V0.352997H198V45.1H216.213ZM322.743 45.1V37.364H309.542V26.497H320.077V18.827H309.542V8.024H322.743V0.352997H301.927V45.1H322.743ZM297.502 0.353997H289.951L283.158 21.959L276.367 0.353997H268.815V45.101H276.432V23.111L279.414 34.489H286.839L289.886 23.111V45.101H297.502V0.353997ZM258.042 8.024H252.519V37.364H258.043L258.042 8.024ZM265.722 5.085C265.722 2.463 263.564 0.353997 261.024 0.353997L249.6 0.354997C247 0.354997 244.904 2.464 244.904 5.085V40.37C244.904 42.927 247 45.1 249.6 45.1H261.024C263.564 45.1 265.722 42.927 265.722 40.37V5.085ZM233.014 28.606L240.692 26.816V40.368C240.692 42.925 238.535 45.098 235.996 45.098H224.571C221.971 45.098 219.876 42.925 219.876 40.368V5.084C219.876 2.462 221.971 0.353997 224.571 0.353997H235.994C238.534 0.353997 240.691 2.462 240.691 5.084V14.161L233.013 15.951V8.023H227.491V37.363H233.013L233.014 28.606ZM170.284 0.353997H162.607L162.037 37.364H161.275L156.387 0.353997H148.835L144.075 37.364H143.251L142.616 0.353997H135L136.142 45.1H150.675L152.642 26.626L154.61 45.1H169.08L170.284 0.353997Z" fill="#81B3D3"/>
<path fill-rule="evenodd" clip-rule="evenodd" d="M9.289 189.422C9.366 189.499 9.405 189.575 9.405 189.652C9.483 189.652 9.56 189.69 9.637 189.767C11.727 192.068 14.089 194.215 16.721 196.209C19.353 198.126 22.373 199.161 25.779 199.315C25.857 199.315 25.934 199.355 26.011 199.431H26.36C26.437 199.431 26.515 199.468 26.592 199.546H27.869C28.257 199.468 28.605 199.392 28.915 199.315C30.156 199.084 31.3395 198.615 32.399 197.935C33.559 197.245 34.45 196.401 35.069 195.404L35.302 194.943L35.534 194.484C35.689 193.947 35.805 193.448 35.883 192.988C35.96 192.528 35.999 192.106 35.999 191.723C35.999 189.652 35.069 187.927 33.212 186.546C31.4805 185.117 29.517 183.989 27.405 183.21C26.6107 182.919 25.7954 182.689 24.966 182.52C24.2379 182.302 23.5021 182.11 22.76 181.945H22.528C22.45 181.868 22.373 181.83 22.296 181.83C18.5304 180.921 14.9274 179.446 11.612 177.458C8.282 175.388 5.999 172.435 4.76 168.6C4.51737 167.798 4.28502 166.992 4.063 166.184C3.90406 165.308 3.78792 164.426 3.715 163.539C3.64366 163.276 3.60471 163.005 3.599 162.733V159.972C3.676 159.359 3.792 158.745 3.947 158.131C4.18741 156.565 4.57612 155.024 5.108 153.53C5.65 151.996 6.347 150.615 7.198 149.389C9.676 145.324 12.85 142.409 16.721 140.646C20.67 138.882 24.773 138 29.031 138C30.038 138 31.044 138.076 32.051 138.23C33.1384 138.307 34.2228 138.422 35.302 138.575C38.126 139.045 40.8904 139.817 43.547 140.876C46.334 141.95 48.889 143.215 51.212 144.672L44.825 158.822C42.7406 157.292 40.5256 155.945 38.205 154.796C35.883 153.645 33.367 153.07 30.657 153.07H29.727C27.947 153.3 26.283 154.105 24.734 155.485C23.186 156.789 22.412 158.208 22.412 159.742V160.432C22.489 160.662 22.605 160.892 22.76 161.123C22.915 161.66 23.186 162.158 23.573 162.619C23.96 163.078 24.386 163.5 24.85 163.884C25.702 164.574 26.94 165.226 28.567 165.839C30.192 166.376 31.896 166.913 33.677 167.45C35.147 167.833 36.579 168.217 37.973 168.6C39.367 168.907 40.528 169.214 41.457 169.521C45.792 171.055 49.044 173.623 51.212 177.228C53.379 180.756 54.502 184.514 54.579 188.501V189.077C54.579 189.538 54.541 189.998 54.463 190.458V191.723C53.999 195.711 52.683 199.507 50.515 203.112C48.425 206.717 45.599 209.478 42.038 211.395C40.7162 212.011 39.3588 212.548 37.973 213.005C36.589 213.387 35.1952 213.732 33.793 214.041C32.643 214.27 31.4792 214.423 30.309 214.501C29.1927 214.651 28.0676 214.728 26.941 214.731H25.663C21.018 214.578 16.451 213.581 11.96 211.739C7.47 209.822 3.483 207.291 0 204.147L9.289 189.422ZM225.183 143.61C218.835 147.061 213.88 152.047 210.319 158.565L210.318 158.564C209.295 160.442 208.44 162.405 207.763 164.431C207.078 166.384 206.535 168.383 206.138 170.413C205.905 171.488 205.75 172.522 205.673 173.518C205.596 174.516 205.557 175.513 205.557 176.51C205.557 183.259 207.415 189.778 211.131 196.067C214.847 202.279 219.957 207.072 226.46 210.446C228.828 211.661 231.319 212.625 233.892 213.322C236.48 214.005 239.122 214.467 241.789 214.703H243.299C243.838 214.78 244.381 214.818 244.925 214.818C252.511 214.818 259.751 212.785 266.641 208.721C273.531 204.58 278.602 198.79 281.853 191.35C282.461 189.852 282.965 188.315 283.363 186.749C283.821 185.17 284.132 183.553 284.292 181.918C284.447 181.15 284.525 180.383 284.525 179.617C284.602 178.773 284.641 177.967 284.641 177.201C284.641 170.837 283.131 164.739 280.112 158.91C277.093 153.005 272.835 148.289 267.338 144.76C264.789 143.152 262.061 141.84 259.209 140.849C256.465 139.863 253.623 139.169 250.731 138.779C249.802 138.701 248.835 138.625 247.828 138.548C246.899 138.472 245.97 138.433 245.041 138.433C238.151 138.433 231.531 140.159 225.183 143.61ZM298.328 213.033V139.753H317.838L345.709 177.371C346.429 178.485 347.088 179.637 347.683 180.822C348.387 181.985 349.045 183.175 349.657 184.388L351.051 187.38C351.515 188.377 351.98 189.334 352.444 190.255C352.371 189.444 352.255 188.638 352.096 187.84C352.019 187.073 351.941 186.268 351.864 185.424C351.706 183.855 351.59 182.282 351.515 180.707C351.435 179.059 351.396 177.41 351.399 175.76V139.753H370.792V213.033H351.399L323.296 175.186C322.522 174.265 321.786 173.191 321.09 171.965C320.386 170.646 319.727 169.303 319.116 167.938C318.666 166.973 318.202 166.014 317.722 165.063C317.363 164.131 316.975 163.21 316.561 162.302C316.948 164.679 317.258 167.095 317.49 169.549C317.722 172.003 317.832 174.457 317.838 176.911V213.033H298.328ZM405.788 139.753L380.356 213.033H400.33L404.162 199.803H432.73L436.446 213.033H456.652L430.988 139.753H405.788ZM408.46 185.653L416.008 161.38C416.315 160.316 416.586 159.241 416.821 158.159C417.137 157.058 417.408 155.946 417.633 154.824C417.71 154.67 417.75 154.555 417.75 154.478C417.75 154.325 417.788 154.172 417.866 154.018C417.943 153.558 418.021 153.136 418.098 152.752C418.253 152.293 418.369 151.871 418.446 151.487C418.524 151.871 418.601 152.293 418.679 152.752C418.756 153.137 418.872 153.558 419.027 154.018C419.269 155.29 419.54 156.555 419.84 157.814C420.216 159.007 420.603 160.195 421.001 161.38L428.55 185.653H408.46ZM263.158 184.908C263.39 184.142 263.584 183.336 263.738 182.492C263.971 181.649 264.126 180.805 264.203 179.961C264.281 179.425 264.319 178.888 264.319 178.352C264.397 177.815 264.435 177.315 264.435 176.856C264.435 176.393 264.396 175.931 264.319 175.475V174.095C263.932 170.796 262.926 167.614 261.299 164.546C259.674 161.478 257.429 159.101 254.564 157.414C253.79 157.031 253.016 156.686 252.242 156.379C251.468 156.072 250.693 155.804 249.919 155.573C249.151 155.421 248.376 155.306 247.597 155.229C246.832 155.076 246.054 154.999 245.274 154.998C241.326 154.998 237.687 156.226 234.358 158.68C231.029 161.134 228.706 164.393 227.39 168.457L227.158 168.918V169.378C226.919 170.094 226.725 170.824 226.578 171.564C226.423 172.254 226.268 172.982 226.113 173.749L225.881 175.36V177.776C225.881 178.006 225.919 178.274 225.997 178.581C226.229 182.646 227.467 186.519 229.713 190.2C232.035 193.804 235.21 196.182 239.235 197.333L240.629 197.792C241.093 197.87 241.597 197.946 242.139 198.022L243.532 198.253H244.926C249.029 198.253 252.706 197.064 255.958 194.687C259.287 192.232 261.687 188.973 263.158 184.908ZM169.157 211.192C173.415 210.271 177.363 208.584 181.002 206.13H181.003C185.493 202.909 188.938 198.768 191.338 193.706C193.738 188.644 195.054 183.391 195.287 177.945V175.07C195.287 174.609 195.248 174.149 195.17 173.69C194.861 168.473 193.506 163.412 191.106 158.504C188.706 153.596 185.338 149.647 181.003 146.656C177.639 144.221 173.805 142.497 169.739 141.594C165.713 140.674 161.609 140.098 157.429 139.868C156.268 139.791 155.068 139.753 153.829 139.753H128.745V213.033H152.551C153.791 213.033 155.03 212.995 156.267 212.918C160.602 212.688 164.899 212.114 169.157 211.192ZM148.602 196.582C148.834 196.582 149.067 196.62 149.299 196.697H150.112C150.422 196.697 150.692 196.736 150.925 196.813H154.06C154.912 196.735 155.725 196.659 156.499 196.582C158.503 196.43 160.486 196.083 162.421 195.547C164.357 195.01 166.099 194.204 167.647 193.131C170.125 191.367 171.944 188.99 173.105 185.998C174.337 182.963 174.968 179.722 174.963 176.451V175.529C174.963 175.223 174.925 174.916 174.847 174.61C174.695 171.705 173.985 168.854 172.757 166.212C171.518 163.451 169.815 161.265 167.647 159.654C166.057 158.368 164.189 157.463 162.189 157.009C160.208 156.543 158.185 156.273 156.15 156.203H148.602V196.582ZM68.692 139.752V213.032H114.098V196.582H88.55V184.158H112.589V168.512H88.55V155.743H114.098V139.752H68.692ZM351.039 334.292C350.926 334.58 350.869 334.869 350.869 335.16C350.869 335.872 351.116 336.418 351.609 336.794C352.104 337.174 352.679 337.363 353.329 337.363C353.305 337.74 353.205 338.074 353.025 338.363C352.846 338.651 352.617 338.906 352.349 339.116C352.082 339.327 351.795 339.505 351.492 339.65C351.188 339.794 350.914 339.909 350.664 339.999L352.014 341.97C352.093 341.932 352.172 341.895 352.252 341.859C352.296 341.84 352.34 341.82 352.384 341.802C352.59 341.714 352.83 341.595 353.11 341.453C353.418 341.291 353.716 341.113 354.003 340.918C354.305 340.717 354.588 340.487 354.846 340.233C355.399 339.689 355.839 339.043 356.142 338.331C356.446 337.619 356.597 336.838 356.597 335.996C356.597 335.549 356.531 335.127 356.395 334.727C356.26 334.326 356.07 333.982 355.823 333.692C355.532 333.378 355.176 333.141 354.762 332.972C354.346 332.806 353.914 332.723 353.464 332.723C353.059 332.723 352.694 332.796 352.369 332.94C352.059 333.074 351.778 333.267 351.542 333.507C351.319 333.741 351.151 334.001 351.039 334.292ZM358.706 335.16C358.706 334.87 358.763 334.58 358.873 334.292C358.986 334.001 359.155 333.741 359.379 333.507C359.606 333.274 359.879 333.083 360.204 332.94C360.531 332.797 360.894 332.723 361.3 332.723C361.75 332.723 362.183 332.806 362.597 332.972C363.014 333.141 363.367 333.378 363.658 333.692C363.908 333.982 364.098 334.326 364.232 334.727C364.366 335.128 364.434 335.55 364.434 335.996C364.443 336.797 364.288 337.591 363.979 338.331C363.675 339.043 363.234 339.689 362.681 340.233C362.422 340.488 362.139 340.717 361.836 340.918C361.55 341.115 361.252 341.294 360.943 341.453C360.663 341.596 360.423 341.714 360.218 341.802C360.094 341.855 359.97 341.911 359.848 341.97L358.5 339.999C358.747 339.91 359.02 339.794 359.325 339.65C359.629 339.505 359.915 339.327 360.185 339.116C360.453 338.904 360.679 338.653 360.858 338.363C361.039 338.074 361.14 337.741 361.162 337.363C360.54 337.373 359.934 337.173 359.443 336.794C358.953 336.418 358.706 335.872 358.706 335.161V335.16ZM93.976 277.863C94.089 277.574 94.146 277.284 94.146 276.996H94.147C94.147 276.283 93.899 275.74 93.407 275.362C92.913 274.984 92.339 274.796 91.689 274.796C91.712 274.416 91.812 274.081 91.992 273.792C92.172 273.503 92.395 273.252 92.665 273.041C92.935 272.829 93.222 272.652 93.525 272.507C93.7943 272.378 94.0696 272.262 94.35 272.159L93.002 270.189C92.958 270.211 92.835 270.268 92.632 270.355C92.429 270.443 92.187 270.561 91.907 270.703C91.5989 270.864 91.3007 271.043 91.014 271.238C90.7106 271.438 90.4278 271.667 90.17 271.922C89.617 272.466 89.1764 273.112 88.873 273.824C88.57 274.537 88.418 275.318 88.418 276.162C88.4159 276.592 88.4841 277.021 88.62 277.43C88.7421 277.808 88.9367 278.159 89.193 278.465C89.4883 278.779 89.8503 279.024 90.253 279.183C90.6649 279.349 91.1054 279.434 91.55 279.433C92.2723 279.443 92.9672 279.159 93.473 278.648C93.6917 278.422 93.8627 278.155 93.976 277.863ZM86.31 276.996C86.3051 277.612 86.0646 278.203 85.637 278.65C85.4013 278.89 85.1208 279.082 84.811 279.216C84.485 279.36 84.119 279.434 83.715 279.434C83.27 279.435 82.8291 279.35 82.417 279.184C82.0144 279.025 81.6524 278.779 81.357 278.465C81.1 278.16 80.9054 277.808 80.784 277.43C80.6475 277.021 80.5793 276.592 80.582 276.162C80.582 275.318 80.732 274.537 81.037 273.824C81.34 273.112 81.7806 272.466 82.334 271.922C82.581 271.676 82.861 271.449 83.177 271.237C83.491 271.027 83.789 270.848 84.07 270.702C84.35 270.56 84.59 270.443 84.794 270.356L84.8496 270.331L84.851 270.33L84.8524 270.33L84.8539 270.329L84.8566 270.328C85.022 270.254 85.1258 270.208 85.166 270.187L86.513 272.157C86.265 272.246 85.991 272.363 85.687 272.506C85.384 272.652 85.097 272.829 84.83 273.039C84.5624 273.249 84.3337 273.504 84.154 273.791C83.975 274.08 83.874 274.415 83.852 274.794C84.502 274.794 85.076 274.982 85.57 275.361C86.063 275.74 86.31 276.282 86.31 276.996ZM335.475 333.336H331.66L343.541 312.893H347.317L335.475 333.336ZM331.479 334.81C330.243 334.81 329.298 335.781 329.298 337.007C329.298 338.233 330.244 339.166 331.479 339.166C332.711 339.166 333.696 338.231 333.696 337.007C333.696 335.783 332.711 334.81 331.479 334.81ZM306.217 327.464L305.127 329.335C305.962 331.782 309.266 330.415 310.396 328.472L312.211 325.377C313.556 323.109 310.577 321.453 306.217 327.464ZM330.219 332.287C330.001 331.712 329.347 331.135 328.802 330.992L328.547 331.281C327.218 332.826 325.691 334.193 324.005 335.347C324.475 333.949 324.722 332.257 324.988 330.428C325.4 327.596 325.86 324.436 327.273 321.528L324.438 320.015C324.16 320.394 323.823 320.86 323.437 321.394L323.437 321.394C321.659 323.854 318.853 327.739 316.046 330.992C316.05 330.998 316.055 331.003 316.059 331.008C316.062 331.011 316.065 331.014 316.067 331.017C316.062 331.015 316.057 331.011 316.051 331.008L316.047 331.006L316.045 331.004C316.041 331.001 316.037 330.999 316.032 330.997L316.029 330.995L316.026 330.994L316.022 330.992L315.769 331.281C313.042 334.412 310.392 336.894 308.719 336.894C307.885 336.894 307.085 336.066 307.085 334.375V332.828C309.737 333.152 312.535 331.423 314.315 328.366L315.331 326.639C318.853 320.666 313.114 318.685 309.263 322.178L314.638 312.928H310.859L300.084 331.448C299.877 331.266 299.645 331.114 299.395 330.995L299.139 331.284C296.416 334.415 292.928 336.897 290.276 336.897C287.951 336.897 286.571 335.458 288.315 332.435L292.199 325.742C294.379 322.035 298.231 322.647 295.977 326.534L295.433 327.469H298.523L299.068 326.534C301.102 323.079 299.139 320.488 296.053 320.488C293.002 320.488 290.566 322.072 288.968 324.807L285.25 331.127C285.172 331.081 285.09 331.028 285.017 330.996L284.762 331.285C282.038 334.416 279.387 336.898 277.715 336.898C276.879 336.898 276.409 336.323 277.279 334.847L285.345 320.847H281.565L274.846 332.471C271.973 335.061 269.761 336.501 269.032 336.178C268.156 335.811 268.905 334.577 269.396 333.768L269.397 333.766L269.443 333.691L269.468 333.648L269.505 333.587L276.879 320.847H273.101L265.763 333.423C265.257 333.88 264.454 334.306 263.73 334.691L263.729 334.691C263.286 334.927 262.872 335.147 262.573 335.349C263.044 333.951 263.29 332.258 263.557 330.429L263.557 330.429L263.557 330.428L263.557 330.428C263.969 327.597 264.43 324.437 265.842 321.53L263.01 320.017C261.447 322.14 252.727 333.586 249.312 337.544C249.637 338.011 250.184 338.48 250.728 338.84C252.871 336.393 260.066 327.216 261.41 325.452C260.909 326.758 260.667 328.414 260.43 330.037C259.961 333.243 259.511 336.321 257.122 336.321C255.852 336.321 255.342 334.952 255.342 334.952L252.981 336.177C252.981 336.177 253.671 339.198 257.121 339.198C257.455 339.198 257.757 339.168 258.085 339.136L258.177 339.127C258.182 339.127 258.188 339.126 258.193 339.125L258.196 339.124L258.201 339.122C258.211 339.119 258.22 339.114 258.23 339.109C258.239 339.104 258.249 339.1 258.258 339.096C258.267 339.093 258.275 339.091 258.283 339.091C260.203 338.84 262.861 337.964 264.643 336.743C264.631 338.266 265.559 339.198 267.143 339.198C269.211 339.198 271.538 337.327 273.353 335.6C272.992 337.616 274.188 339.198 276.588 339.198C278.934 339.198 281.547 337.33 284.025 334.876C284.059 337.363 285.993 339.198 289.151 339.198C292.217 339.198 295.265 337.501 297.892 335.22L295.787 338.84H299.603L303.926 331.39V334.376C303.926 337.578 304.543 339.198 307.596 339.198C310.719 339.198 314.317 335.889 317.441 332.289L317.44 332.287C317.438 332.284 317.436 332.282 317.434 332.279L317.433 332.278C317.431 332.275 317.428 332.271 317.426 332.267C317.423 332.263 317.422 332.259 317.421 332.255C317.435 332.267 317.452 332.278 317.468 332.289C319.181 330.333 320.733 328.262 321.971 326.608C322.282 326.193 322.574 325.804 322.843 325.449C322.343 326.755 322.102 328.41 321.865 330.032C321.396 333.239 320.946 336.319 318.556 336.319C317.286 336.319 316.776 334.95 316.776 334.95L314.414 336.175C314.414 336.175 315.105 339.196 318.556 339.196C318.884 339.196 319.182 339.167 319.508 339.135L319.612 339.125C319.627 339.125 319.641 339.119 319.656 339.111L319.663 339.108L319.663 339.108C319.672 339.103 319.681 339.099 319.69 339.096C319.699 339.092 319.708 339.09 319.717 339.09C323.57 338.583 327.385 335.562 330.218 332.285L330.219 332.287ZM215.445 331.211H215.628L218.388 326.533C220.676 322.645 217.044 320.882 214.391 325.344L212.575 328.404L209.705 333.334C207.452 337.221 211.776 337.796 213.555 334.774L213.592 334.702C213.374 334.343 213.229 333.912 213.229 333.445C213.229 332.218 214.21 331.211 215.445 331.211ZM190.198 345.209C189.398 346.613 188.126 346.398 188.126 345.391C188.126 344.421 189.035 343.305 191.941 342.188L190.198 345.209ZM155.353 336.861C156.915 336.861 159.168 335.169 161.456 331.608L164.397 326.497C166.251 323.113 162.219 322.214 160.184 325.703L154.917 334.81C154.046 336.287 154.518 336.861 155.353 336.861ZM149.402 316.997C150.528 315.088 151.764 314.261 152.817 314.261C154.235 314.261 154.888 315.196 154.888 316.564C154.888 320.055 150.524 327.295 144.716 326.352H143.953L149.402 316.997ZM241.925 331.248L242.179 330.958L242.18 330.959C242.69 331.175 243.343 331.752 243.598 332.258C240.472 335.857 236.878 339.167 233.752 339.167C230.699 339.167 229.574 336.615 231.172 333.842L236.076 325.384C237.712 322.612 235.132 321.678 229.355 328.84L223.579 338.809H219.764L222.304 334.456C220.618 335.377 218.75 335.893 217.37 335.893H216.535C212.297 341.2 205.269 340.008 205.789 334.781C202.537 337.97 199.423 339.91 196.264 340.895L193.358 345.826C190.636 350.433 185.076 349.676 185.076 346.077C185.076 343.272 188.273 341.182 193.396 339.673L195.467 336.146C193.758 337.656 191.689 339.167 189.872 339.167C187.99 339.167 187.031 337.848 187.484 335.789C185.31 337.761 183.077 339.167 181.044 339.167C177.993 339.167 176.867 336.616 178.465 333.842L183.369 325.388C185.004 322.615 182.424 321.681 176.647 328.843L170.871 338.812H167.057L168.449 336.423C166.507 338.057 164.539 339.17 162.729 339.17C160.805 339.17 159.641 338.165 159.461 336.725C157.644 338.2 155.755 339.17 154.229 339.17C151.554 339.17 150.358 337.208 151.181 334.856L150.957 335.068C148.467 337.414 146.604 339.17 142.5 339.17C137.16 339.17 135.599 334.134 138.25 329.599L139.375 327.654C136.325 326.071 134.617 323.191 134.617 320.206C134.617 317.684 135.814 315.132 138.504 313.222L139.739 315.42C138.105 316.678 137.305 318.405 137.305 320.132C137.305 322.22 138.469 324.307 140.685 325.459L146.571 315.418C148.277 312.468 150.748 311.027 152.819 311.027C155.615 311.027 157.832 313.221 157.832 316.604C157.832 318.08 157.359 319.807 156.306 321.643C153.327 326.789 148.749 328.841 144.716 328.841C143.955 328.841 143.264 328.765 142.574 328.659L141.519 330.494C139.269 334.31 140.83 336.864 143.409 336.864C147.084 336.864 149.168 334.47 151.822 331.42L151.969 331.251L152.223 330.961C152.494 331.034 152.791 331.214 153.051 331.445L156.954 324.772C158.55 322.035 161.386 320.453 163.419 320.453C165.89 320.453 167.525 322.648 167.38 324.231H169.523L163.419 334.811C162.548 336.289 163.02 336.863 163.855 336.863C165.528 336.863 168.18 334.38 170.903 331.25L171.157 330.96C171.282 331.018 171.402 331.084 171.516 331.16L177.554 320.813H181.334L179.917 323.259C181.805 321.316 183.513 320.452 185.148 320.452C187.255 320.452 188.817 322.504 187.182 325.347L181.733 334.811C180.862 336.289 181.334 336.863 182.169 336.863C183.841 336.863 186.492 334.38 189.217 331.25L189.471 330.96C189.586 331.014 189.697 331.075 189.802 331.145L195.83 320.813H199.608L192.233 333.553C192.211 333.59 192.188 333.629 192.164 333.668L192.122 333.737C191.632 334.547 190.887 335.779 191.761 336.144C192.487 336.467 194.74 334.992 197.647 332.33L204.33 320.813H208.109L197.754 338.377C200.732 337.114 203.384 334.811 206.509 331.25L206.763 330.961C206.882 331.015 206.996 331.078 207.105 331.149L208.725 328.405L210.577 325.203C212.758 321.46 215.009 320.309 217.916 320.309C221.478 320.309 223.584 324.013 221.296 327.938L217.736 334.02C219.625 333.984 221.733 333.082 223.439 331.248L223.694 330.958C223.864 331.038 224.026 331.134 224.176 331.246L230.264 320.811H234.043L232.626 323.257C234.516 321.314 236.221 320.451 237.857 320.451C239.962 320.451 241.528 322.502 239.892 325.345L234.442 334.809C233.571 336.287 234.042 336.861 234.878 336.861C236.55 336.861 239.203 334.378 241.925 331.248ZM360.81 295.72C358.52 299.426 356.195 301.189 354.598 301.189C353.763 301.189 353.291 300.615 354.161 299.139L359.428 290.032C361.463 286.541 365.495 287.442 363.642 290.825H363.677L360.81 295.72ZM318.519 301.189C320.08 301.189 322.333 299.497 324.623 295.937L327.564 290.825C329.416 287.442 325.384 286.541 323.35 290.032L318.082 299.139C317.212 300.615 317.683 301.189 318.519 301.189ZM284.706 309.538C283.909 310.942 282.636 310.727 282.636 309.721C282.636 308.749 283.508 307.633 286.415 306.517L284.706 309.538ZM296.151 278.591C295.096 278.591 293.861 279.417 292.734 281.325L287.286 290.681H288.049C297.676 292.89 302.145 278.591 296.151 278.591ZM370.398 295.289L370.143 295.577C367.423 298.707 364.769 301.19 363.096 301.19C362.261 301.19 361.789 300.616 362.659 299.139L375.448 277.223H371.669L366.112 286.723C365.458 285.679 364.222 284.78 362.659 284.78C360.624 284.78 357.792 286.364 356.193 289.098L352.495 295.418C352.474 295.406 352.452 295.393 352.431 295.38C352.373 295.346 352.315 295.311 352.261 295.287L352.006 295.577C349.283 298.707 347.006 301.189 345.334 301.189C344.497 301.189 344.027 300.615 344.896 299.139L350.346 289.674C351.983 286.83 350.418 284.778 348.312 284.778C346.676 284.778 344.972 285.641 343.08 287.586L344.497 285.139H340.718L334.681 295.488C334.566 295.412 334.446 295.345 334.321 295.287L334.065 295.577C331.342 298.707 328.691 301.189 327.019 301.189C326.184 301.189 325.713 300.615 326.583 299.139L332.686 288.557H330.542C330.688 286.974 329.054 284.778 326.582 284.778C324.547 284.778 321.712 286.362 320.114 289.095L316.462 295.342L316.256 295.574C313.534 298.703 310.506 301.185 308.836 301.185C307.999 301.185 307.529 300.611 308.399 299.135L312.177 292.586C313.484 290.317 312.866 288.987 311.632 287.511L309.526 284.991C308.981 284.307 308.981 283.552 309.744 282.831L307.782 280.708C305.638 282.617 305.457 284.739 306.8 286.467L307.129 286.899L306.995 287.087L306.994 287.088C305.337 289.408 303.139 292.483 300.732 295.284C300.807 295.39 300.896 295.495 300.99 295.601C297.877 299.148 295.231 301.441 292.26 302.696L297.055 294.563H293.277L292.878 295.212C290.88 298.703 288.59 301.186 285.648 301.186C283.068 301.186 282.598 298.632 284.848 294.817L285.903 292.982C286.611 293.098 287.327 293.158 288.045 293.161C301.488 293.161 307.991 275.348 296.149 275.348C294.077 275.348 291.605 276.789 289.899 279.739L284.014 289.779C281.798 288.628 280.636 286.541 280.636 284.454C280.636 282.727 281.436 280.999 283.068 279.741L281.835 277.544C279.145 279.452 277.947 282.006 277.947 284.525C277.947 287.513 279.656 290.392 282.707 291.975L281.58 293.919C278.928 298.454 279.4 303.492 284.742 303.492C286.34 303.492 287.683 303.024 288.847 302.303L287.864 303.997C282.744 305.542 279.582 307.594 279.582 310.401C279.582 313.999 285.142 314.756 287.864 310.149L290.771 305.219C294.696 303.996 298.547 301.333 302.689 296.582C302.622 296.458 302.543 296.34 302.453 296.23C304.131 294.278 305.555 292.393 308.403 288.557L308.91 289.17C309.383 289.781 309.564 290.537 309.128 291.294L305.131 298.166C303.532 300.935 304.659 303.49 307.711 303.49C309.61 303.49 312.059 302.262 314.096 300.494C314.052 302.216 315.24 303.49 317.395 303.49C318.92 303.49 320.81 302.519 322.625 301.043C322.808 302.483 323.972 303.49 325.895 303.49C327.705 303.49 329.672 302.375 331.615 300.742L330.223 303.131H334.036L339.813 293.16C345.59 285.999 348.17 286.935 346.533 289.706L341.63 298.164C340.033 300.936 341.157 303.49 344.208 303.49C346.218 303.49 348.044 302.119 350.19 300.188C349.99 302.063 351.194 303.49 353.472 303.49C354.997 303.49 356.886 302.519 358.704 301.043C358.886 302.484 360.049 303.49 361.973 303.49C365.098 303.49 368.693 300.18 371.818 296.579C371.562 296.08 370.909 295.504 370.398 295.289ZM261.897 290.826C264.151 286.939 260.298 286.327 258.118 290.034L255.684 294.244C257.1 294.747 259.535 294.821 261.352 291.761L261.897 290.826ZM255.067 303.494C259.354 303.494 263.607 300.184 266.729 296.584C266.476 296.079 265.821 295.504 265.312 295.288L265.059 295.578C262.333 298.708 258.846 301.19 256.192 301.19C253.867 301.19 252.487 299.751 254.23 296.728L254.593 296.081C257.028 297.087 261.605 296.621 264.439 291.762L264.984 290.827C267.019 287.37 265.057 284.78 261.968 284.78C258.918 284.78 256.484 286.363 254.885 289.098L251.206 295.352C251.19 295.343 251.174 295.333 251.158 295.324C251.136 295.31 251.115 295.297 251.094 295.288L250.839 295.578C248.115 298.708 245.464 301.19 243.792 301.19C242.956 301.19 242.486 300.616 243.355 299.139L248.805 289.674C250.44 286.83 248.877 284.778 246.769 284.778C245.134 284.778 243.39 285.678 241.503 287.622L247.533 277.221H243.755L233.099 295.537C232.964 295.439 232.819 295.356 232.667 295.287L232.412 295.576C229.687 298.707 227.036 301.189 225.364 301.189C224.529 301.189 224.057 300.615 224.927 299.139L233.029 285.137H236.119L237.209 283.338H234.084L237.644 277.221H233.866L230.306 283.338H226.891L225.801 285.137H229.251L221.658 298.167C220.06 300.94 221.186 303.494 224.237 303.494C226.115 303.494 228.163 302.292 230.177 300.557L228.678 303.133H232.493L238.233 293.235C244.046 286.001 246.626 286.937 244.991 289.708L240.086 298.166C238.488 300.938 239.614 303.492 242.666 303.492C244.962 303.492 247.512 301.704 249.942 299.326C250.052 301.734 251.975 303.494 255.067 303.494ZM131.372 290.825C133.626 286.937 129.776 286.326 127.596 290.033L125.161 294.242C126.577 294.746 129.013 294.819 130.828 291.76L131.372 290.825ZM150.715 299.138L155.983 290.033C158.017 286.54 162.05 287.441 160.196 290.825L157.254 295.935C154.966 299.496 152.711 301.189 151.15 301.189C150.316 301.189 149.843 300.614 150.715 299.139V299.138ZM208.475 290.825C210.729 286.937 206.879 286.326 204.699 290.033L202.264 294.242C203.68 294.745 206.115 294.819 207.93 291.76L208.475 290.825ZM146.891 299.47C146.264 301.689 147.461 303.492 150.025 303.492C151.55 303.492 153.44 302.521 155.255 301.046C155.438 302.485 156.601 303.493 158.525 303.493C160.538 303.493 162.743 302.116 164.894 300.178C164.476 302.201 165.433 303.493 167.294 303.493C169.367 303.493 171.692 301.62 173.507 299.893C173.143 301.91 174.344 303.493 176.741 303.493C179.866 303.493 183.461 300.182 186.586 296.582C186.57 296.551 186.548 296.52 186.525 296.488L186.525 296.488L186.525 296.488C186.511 296.469 186.498 296.451 186.486 296.432C188.126 294.542 189.615 292.561 190.817 290.961C191.145 290.524 191.451 290.116 191.734 289.746C191.233 291.052 190.991 292.707 190.754 294.33L190.754 294.33C190.285 297.536 189.835 300.615 187.446 300.615C186.176 300.615 185.666 299.246 185.666 299.246L183.303 300.469C183.303 300.469 183.993 303.493 187.445 303.493C187.769 303.493 188.063 303.463 188.383 303.432L188.499 303.42C188.502 303.42 188.505 303.42 188.508 303.42C188.511 303.419 188.514 303.419 188.517 303.418C188.529 303.415 188.542 303.409 188.554 303.403C188.572 303.394 188.589 303.386 188.607 303.386C191.383 303.022 194.136 301.349 196.52 299.216C196.578 301.679 198.506 303.493 201.645 303.493C205.932 303.493 210.183 300.183 213.307 296.582C213.053 296.077 212.399 295.502 211.891 295.286L211.637 295.576C208.912 298.706 205.424 301.189 202.774 301.189C200.448 301.189 199.067 299.749 200.811 296.727L201.175 296.079C203.607 297.085 208.185 296.619 211.02 291.76L211.565 290.826C213.599 287.369 211.637 284.779 208.55 284.779C205.5 284.779 203.063 286.362 201.467 289.096L197.797 295.331C197.781 295.326 197.765 295.317 197.749 295.309C197.73 295.3 197.712 295.29 197.693 295.285L197.439 295.574C196.11 297.119 194.583 298.486 192.897 299.641C193.368 298.243 193.615 296.55 193.881 294.72C194.294 291.889 194.755 288.73 196.167 285.821L193.334 284.309C193.05 284.695 192.705 285.173 192.309 285.72C190.53 288.182 187.736 292.047 184.941 295.285C184.96 295.311 184.981 295.337 185.003 295.363L185.02 295.384C185.031 295.396 185.041 295.409 185.051 295.422L184.916 295.574C182.192 298.704 179.54 301.187 177.868 301.187C177.033 301.187 176.561 300.613 177.432 299.137L185.497 285.135H181.718L174.998 296.758C172.128 299.35 169.913 300.789 169.184 300.465C168.308 300.099 169.059 298.863 169.55 298.054C169.588 297.991 169.624 297.931 169.658 297.875L177.031 285.136H173.253L167.24 295.443L167.206 295.422C167.12 295.369 167.034 295.318 166.953 295.283L166.699 295.571C163.974 298.701 161.323 301.184 159.651 301.184C158.816 301.184 158.344 300.61 159.215 299.134L165.318 288.552H163.174C163.32 286.969 161.686 284.772 159.214 284.772C157.18 284.772 154.346 286.357 152.748 289.091L148.918 295.641C148.741 295.498 148.548 295.378 148.342 295.281L148.088 295.569C145.364 298.699 142.23 301.182 139.578 301.182C137.254 301.182 135.872 299.743 137.615 296.721L141.502 290.028C143.682 286.321 147.533 286.933 145.279 290.819L144.734 291.755H147.824L148.368 290.819C150.402 287.364 148.441 284.772 145.354 284.772C142.302 284.772 140.22 286.357 138.624 289.091L134.868 295.474C134.758 295.4 134.642 295.336 134.521 295.281L134.267 295.569C131.543 298.699 128.32 301.182 125.669 301.182C123.343 301.182 121.962 299.743 123.706 296.721L124.069 296.073C126.503 297.081 131.081 296.613 133.915 291.756L134.46 290.819C136.494 287.365 134.532 284.773 131.444 284.773C128.394 284.773 125.958 286.356 124.361 289.092L120.401 295.82C118.038 299.815 120.074 303.486 124.541 303.486C127.87 303.486 130.554 301.49 133.329 298.912C133.231 301.524 135.187 303.486 138.45 303.486C141.538 303.492 144.25 301.774 146.891 299.47ZM113.07 280.459L110.019 285.641V285.642C113.87 285.569 116.015 284.741 117.465 282.043C119.355 278.515 115.83 275.747 113.07 280.459ZM105.951 302.699C103.698 302.699 101.918 302.196 100.501 301.405C101.155 300.649 101.808 299.712 102.391 298.742L108.747 287.837L109.764 287.944C118.63 289.782 115.105 302.699 105.951 302.699ZM115.288 287.369C122.916 284.813 123.497 275.348 115.977 275.348C113.906 275.348 111.436 276.788 109.729 279.739L99.556 297.158C99.1362 297.906 98.6503 298.615 98.104 299.279C95.488 295.717 96.251 290.392 99.92 288.051L98.393 286.143C90.473 291.146 92.799 305.576 106.023 305.576C117.322 305.578 122.553 292.157 115.288 287.369Z" fill="white"/>
</svg>
