<svg width="64" height="76" viewBox="0 0 64 76" fill="none" xmlns="http://www.w3.org/2000/svg">
<path fill-rule="evenodd" clip-rule="evenodd" d="M61.097 22.5011H36.312C50.125 15.6021 51.229 11.2501 50.72 8.81612C49.558 4.85312 45.028 1.79312 40.718 3.40912C35.149 5.49812 33.581 13.7971 32.074 19.7961C30.15 13.7261 28.29 5.98212 23.938 2.05912C22.677 0.921121 20.843 -0.204879 18.175 0.0311212C14.149 0.387121 8.373 5.41312 10.717 11.0121C12.968 16.3901 20.404 19.7891 25.295 22.5011H2.879C1.29355 22.5028 0.00715075 23.7847 0 25.3701V36.6921C0.00715075 38.2776 1.29355 39.5595 2.879 39.5611H3.153V76.0001H60.994V39.5611H61.097C62.6828 39.56 63.9698 38.2779 63.977 36.6921V25.3701C63.9698 23.7843 62.6828 22.5022 61.097 22.5011ZM42.413 5.94412C44.516 5.63412 47.395 7.24312 47.668 9.15312C48.061 11.9091 44.268 14.4081 42.582 15.5741C40.059 17.3181 37.654 18.2171 35.295 19.6291C36.179 15.9391 37.844 6.61812 42.413 5.94412ZM19.531 15.9121C17.306 14.4271 12.987 11.4811 13.091 8.14112C13.203 4.54612 18.834 1.57112 21.905 4.25512C25.761 7.62612 27.618 15.3601 29.024 20.8121C25.775 19.2731 22.696 18.0241 19.531 15.9121ZM25.503 73.0261H6.136V39.5611H25.504V73.0261H25.503ZM25.503 36.5241H3.046V25.5381H25.503V36.5241ZM35.66 36.5241V73.0271H28.486V25.5381H35.66V36.5241ZM58.011 73.0261H38.644V39.5611H58.011V73.0261ZM60.931 36.5241H38.644V25.5381H60.931V36.5241Z" fill="#81B3D2"/>
</svg>
